# xmcd
#
# Track frame offsets:
#	182
#	32517
#	55445
#	71032
#	107950
#	126935
#	138885
#	164997
#	200265
#	215890
#	255220
#	267800
#	283462
#	295477
#	313787
#	332492
#
# Disc length: 4683 seconds
#
# Revision: 3
# Processed by: cddbd v1.5.1PL0 Copyright (c) Steve Scherf et al.
# Submitted via: MusicManager 7.0.6.0 
#
DISCID=0b124910
DTITLE=Roy Buchanan - The Atlantic Sessions - Guitar On Fire
DYEAR=1993
DGENRE=Blues
TTITLE0=Ramon's Blues
TTITLE1=The Heat Of The Battle
TTITLE2=Hidden
TTITLE3=Green Onions
TTITLE4=Judy
TTITLE5=Adventures Of Brer Rabbit And Tar Baby
TTITLE6=Turn To Stone
TTITLE7=Fly...Night Bird
TTITLE8=Supernova
TTITLE9=Down By The River
TTITLE10=Running Out
TTITLE11=Man On The Floor
TTITLE12=Okay
TTITLE13=My Friend Jeff
TTITLE14=If Six Was Nine
TTITLE15=The Messiah Will Come Again
EXTD=
EXTT0=
EXTT1=
EXTT2=
EXTT3=
EXTT4=
EXTT5=
EXTT6=
EXTT7=
EXTT8=
EXTT9=
EXTT10=
EXTT11=
EXTT12=
EXTT13=
EXTT14=
EXTT15=
PLAYORDER=
